<svg width="77" height="56" viewBox="0 0 77 56" fill="none" xmlns="http://www.w3.org/2000/svg">
<path d="M2 2H17.1602L18.1911 6.49819M18.1911 6.49819L25.4673 38.2468C25.6756 39.1557 26.4843 39.8 27.4167 39.8H64.0879C64.5174 39.8 64.8989 39.5257 65.0358 39.1186L75.1136 9.13539C75.5492 7.83942 74.585 6.49819 73.2178 6.49819H18.1911Z" stroke="#E8E8E8" stroke-width="2.5" stroke-linecap="round"/>
<path d="M32.464 50.6002C32.464 52.9175 30.6321 54.7502 28.4283 54.7502C26.2245 54.7502 24.3926 52.9175 24.3926 50.6002C24.3926 48.2829 26.2245 46.4502 28.4283 46.4502C30.6321 46.4502 32.464 48.2829 32.464 50.6002Z" stroke="#E8E8E8" stroke-width="2.5"/>
<path d="M64.1789 50.6002C64.1789 52.9175 62.3469 54.7502 60.1431 54.7502C57.9393 54.7502 56.1074 52.9175 56.1074 50.6002C56.1074 48.2829 57.9393 46.4502 60.1431 46.4502C62.3469 46.4502 64.1789 48.2829 64.1789 50.6002Z" stroke="#E8E8E8" stroke-width="2.5"/>
<path d="M33.7139 39.7999L44.2854 7.3999" stroke="#E8E8E8" stroke-width="2.5" stroke-linecap="round"/>
<path d="M23.1426 26.2999L29.4854 7.3999" stroke="#E8E8E8" stroke-width="2.5" stroke-linecap="round"/>
<path d="M49.5713 39.7999L60.1427 7.3999" stroke="#E8E8E8" stroke-width="2.5" stroke-linecap="round"/>
</svg>
